Coordinates
version=1
nRows=11
nColumns=40
inDegrees=yes

Units are S.I. units (second, meters, Newtons, ...)
If the header above contains a line with 'inDegrees', this indicates whether rotational values are in degrees (yes) or radians (no).

endheader
time	pelvis_tilt	pelvis_list	pelvis_rotation	pelvis_tx	pelvis_ty	pelvis_tz	hip_flexion_r	hip_adduction_r	hip_rotation_r	knee_angle_r	knee_angle_r_beta	ankle_angle_r	subtalar_angle_r	mtp_angle_r	hip_flexion_l	hip_adduction_l	hip_rotation_l	knee_angle_l	knee_angle_l_beta	ankle_angle_l	subtalar_angle_l	mtp_angle_l	lumbar_extension	lumbar_bending	lumbar_rotation	arm_flex_r	arm_add_r	arm_rot_r	elbow_flex_r	pro_sup_r	wrist_flex_r	wrist_dev_r	arm_flex_l	arm_add_l	arm_rot_l	elbow_flex_l	pro_sup_l	wrist_flex_l	wrist_dev_l
     10.60000000	      0.63639159	      2.78445971	    179.05780730	      0.28863069	      0.69846206	     -0.94508569	     55.25465010	    -37.05884208	     -9.76329131	     68.18239687	      1.19000732	      7.86409091	      0.00000000	      0.00000000	     54.39447842	    -49.29104512	     -6.50699483	     60.90736525	      1.06303406	      0.38778535	      0.00000000	      0.00000000	    -76.67200404	     -1.01976971	      4.52708944	     57.76049807	      1.73682015	     -3.62062437	      6.58464362	     17.24249000	      0.00000000	      0.00000000	     65.18285789	     -6.21889175	     69.31909644	      7.16242061	     85.00464995	      0.00000000	      0.00000000
     10.60500000	      0.78923886	      3.04164329	    179.26479537	      0.28880404	      0.69699043	     -0.94460175	     55.33485663	    -37.13427302	    -10.09124660	     68.41668005	      1.19409633	      7.96403047	      0.00000000	      0.00000000	     55.38538956	    -49.24383752	     -5.48263135	     61.28512642	      1.06962724	      0.65237950	      0.00000000	      0.00000000	    -76.34525227	     -0.70908415	      4.73408468	     57.55278285	      1.66261213	     -3.55273704	      6.66909440	     17.16131034	      0.00000000	      0.00000000	     65.01000803	     -6.18943910	     69.80706068	      7.11149522	     84.99095343	      0.00000000	      0.00000000
     10.61000000	      0.67027657	      3.02311631	    179.23718416	      0.28903533	      0.69640488	     -0.94468403	     55.38415620	    -37.14285051	     -9.94795996	     68.58006513	      1.19694794	      8.01219121	      0.00000000	      0.00000000	     55.31628533	    -49.24486770	     -5.40026813	     61.32673645	      1.07035347	      0.66194811	      0.00000000	      0.00000000	    -76.31774572	     -0.76070401	      4.70888869	     57.45699365	      1.68484221	     -3.56139509	      6.64604629	     17.15306160	      0.00000000	      0.00000000	     64.94874728	     -6.19121231	     69.79923881	      7.08605362	     84.98663834	      0.00000000	      0.00000000
     10.61500000	      0.55664954	      2.98621857	    179.23995531	      0.28917499	      0.69586399	     -0.94469751	     55.41714893	    -37.20262895	     -9.83167901	     68.72617829	      1.19949809	      8.07147860	      0.00000000	      0.00000000	     55.27994680	    -49.25014533	     -5.32964851	     61.42518058	      1.07207164	      0.68201524	      0.00000000	      0.00000000	    -76.29088785	     -0.76261087	      4.65661885	     57.35532452	      1.70703825	     -3.57869366	      6.64593420	     17.14790279	      0.00000000	      0.00000000	     64.87028860	     -6.20575601	     69.80438744	      7.06076548	     84.98457572	      0.00000000	      0.00000000
     10.62000000	      0.43583500	      2.95891720	    179.24023059	      0.28931390	      0.69529391	     -0.94470273	     55.44180397	    -37.25851379	     -9.72722394	     68.88012839	      1.20218503	      8.11802464	      0.00000000	      0.00000000	     55.25875740	    -49.25854832	     -5.24534569	     61.55022523	      1.07425409	      0.71343058	      0.00000000	      0.00000000	    -76.26504209	     -0.77546138	      4.60420126	     57.25562537	      1.73424910	     -3.60170669	      6.65883471	     17.14493549	      0.00000000	      0.00000000	     64.78970500	     -6.22787632	     69.81845003	      7.04303546	     84.98416316	      0.00000000	      0.00000000
     10.62500000	      0.32674127	      2.95158428	    179.26971493	      0.28947044	      0.69470723	     -0.94458439	     55.44116360	    -37.32676704	     -9.66989597	     69.00828855	      1.20442185	      8.15492319	      0.00000000	      0.00000000	     55.36112411	    -49.28081219	     -5.12870996	     61.79117829	      1.07845951	      0.78583989	      0.00000000	      0.00000000	    -76.23183779	     -0.73997236	      4.54275940	     57.14260846	      1.78579616	     -3.64651138	      6.73563795	     17.14754455	      0.00000000	      0.00000000	     64.70387233	     -6.28045595	     69.86503541	      7.04340222	     84.98424413	      0.00000000	      0.00000000
     10.63000000	      0.23627364	      2.93263715	    179.25548223	      0.28967881	      0.69411960	     -0.94460064	     55.49480831	    -37.33594195	     -9.53632596	     69.14202551	      1.20675600	      8.22314023	      0.00000000	      0.00000000	     55.35325024	    -49.28097059	     -5.01579448	     61.85265577	      1.07953249	      0.83088975	      0.00000000	      0.00000000	    -76.17626663	     -0.75784326	      4.51982790	     57.05265457	      1.76806546	     -3.67678001	      6.74741280	     17.14412663	      0.00000000	      0.00000000	     64.61540422	     -6.28626736	     69.88819269	      7.06008992	     84.98661059	      0.00000000	      0.00000000
     10.63500000	      0.13721829	      2.92911317	    179.20478090	      0.28992421	      0.69352926	     -0.94471859	     55.56449908	    -37.30953153	     -9.38910971	     69.28931837	      1.20932674	      8.23471766	      0.00000000	      0.00000000	     55.29828303	    -49.29869865	     -4.91389029	     61.89596960	      1.08028846	      0.86396429	      0.00000000	      0.00000000	    -76.14947303	     -0.82094616	      4.53446422	     56.99604088	      1.78159943	     -3.69414185	      6.75108318	     17.14265337	      0.00000000	      0.00000000	     64.58936768	     -6.29838821	     69.89386129	      7.06824586	     84.98685396	      0.00000000	      0.00000000
     10.64000000	      0.05253090	      2.90744528	    179.25970389	      0.28996430	      0.69294213	     -0.94461235	     55.57508607	    -37.42873626	     -9.36769949	     69.43509246	      1.21187098	      8.31287403	      0.00000000	      0.00000000	     55.39844665	    -49.28184245	     -4.83442251	     62.11084966	      1.08403883	      0.94416723	      0.00000000	      0.00000000	    -76.08754110	     -0.77664754	      4.47012040	     56.85396641	      1.80518094	     -3.74394774	      6.78114020	     17.14112281	      0.00000000	      0.00000000	     64.45670297	     -6.35440218	     69.94528149	      7.08490144	     84.99372319	      0.00000000	      0.00000000
     10.64500000	     -0.05030901	      2.89075190	    179.24306406	      0.29013253	      0.69227560	     -0.94472588	     55.64531498	    -37.46738276	     -9.24895333	     69.61222204	      1.21496247	      8.32576018	      0.00000000	      0.00000000	     55.36066866	    -49.30319811	     -4.70798019	     62.17373663	      1.08513641	      0.99090502	      0.00000000	      0.00000000	    -76.04436971	     -0.81793608	      4.48048447	     56.79212781	      1.80856171	     -3.76663929	      6.78637051	     17.13876723	      0.00000000	      0.00000000	     64.40240763	     -6.36276716	     69.96154314	      7.10881987	     84.99596338	      0.00000000	      0.00000000
     10.65000000	     -0.12234358	      2.87172763	    179.27656154	      0.29024468	      0.69168018	     -0.94459571	     55.67413902	    -37.54832735	     -9.18540537	     69.72443908	      1.21692103	      8.40079162	      0.00000000	      0.00000000	     55.47060398	    -49.32016720	     -4.60240765	     62.35652306	      1.08832664	      1.07854165	      0.00000000	      0.00000000	    -75.97200715	     -0.78543305	      4.43170849	     56.67644521	      1.82122662	     -3.81049090	      6.79668201	     17.13385087	      0.00000000	      0.00000000	     64.29184683	     -6.39350268	     70.01341884	      7.14981299	     85.00458326	      0.00000000	      0.00000000
